<mxfile host="app.diagrams.net" agent="Mozilla/5.0 (Macintosh; Intel Mac OS X 10_15_7) AppleWebKit/537.36 (KHTML, like Gecko) Chrome/127.0.0.0 Safari/537.36" version="24.7.6">
  <diagram name="Página-1" id="mKH81YA4oT9M9gOP3-xf">
    <mxGraphModel dx="1136" dy="650" grid="1" gridSize="10" guides="1" tooltips="1" connect="1" arrows="1" fold="1" page="1" pageScale="1" pageWidth="1169" pageHeight="827" math="0" shadow="0">
      <root>
        <mxCell id="0" />
        <mxCell id="1" parent="0" />
        <mxCell id="Q30Wrn-e5RRqp390VMw--28" style="edgeStyle=orthogonalEdgeStyle;rounded=0;orthogonalLoop=1;jettySize=auto;html=1;entryX=0;entryY=0.5;entryDx=0;entryDy=0;" edge="1" parent="1" source="Q30Wrn-e5RRqp390VMw--18" target="Q30Wrn-e5RRqp390VMw--26">
          <mxGeometry relative="1" as="geometry" />
        </mxCell>
        <mxCell id="Q30Wrn-e5RRqp390VMw--18" value="&lt;meta charset=&quot;utf-8&quot;&gt;&lt;h1 style=&quot;forced-color-adjust: none; color: rgb(0, 0, 0); font-family: Helvetica; font-style: normal; font-variant-ligatures: normal; font-variant-caps: normal; letter-spacing: normal; orphans: 2; text-align: center; text-indent: 0px; text-transform: none; widows: 2; word-spacing: 0px; -webkit-text-stroke-width: 0px; white-space: normal; background-color: rgb(251, 251, 251); text-decoration-thickness: initial; text-decoration-style: initial; text-decoration-color: initial; margin-top: 0px; font-size: 12px;&quot;&gt;Criação de conteúdo&lt;/h1&gt;&lt;div style=&quot;forced-color-adjust: none; color: rgb(0, 0, 0); font-family: Helvetica; font-size: 12px; font-style: normal; font-variant-ligatures: normal; font-variant-caps: normal; font-weight: 400; letter-spacing: normal; orphans: 2; text-align: center; text-indent: 0px; text-transform: none; widows: 2; word-spacing: 0px; -webkit-text-stroke-width: 0px; white-space: normal; background-color: rgb(251, 251, 251); text-decoration-thickness: initial; text-decoration-style: initial; text-decoration-color: initial;&quot;&gt;Cria o content type, asset e/ou entries.&lt;/div&gt;" style="rounded=1;whiteSpace=wrap;html=1;" vertex="1" parent="1">
          <mxGeometry x="240" y="270" width="140" height="80" as="geometry" />
        </mxCell>
        <mxCell id="Q30Wrn-e5RRqp390VMw--1" value="Desenvolvedor" style="shape=umlActor;verticalLabelPosition=bottom;verticalAlign=top;html=1;outlineConnect=0;align=center;" vertex="1" parent="1">
          <mxGeometry x="50" y="340" width="30" height="60" as="geometry" />
        </mxCell>
        <mxCell id="Q30Wrn-e5RRqp390VMw--12" value="Editor de Conteúdo" style="shape=umlActor;verticalLabelPosition=bottom;verticalAlign=top;html=1;outlineConnect=0;" vertex="1" parent="1">
          <mxGeometry x="50" y="210" width="30" height="60" as="geometry" />
        </mxCell>
        <mxCell id="Q30Wrn-e5RRqp390VMw--31" value="" style="edgeStyle=orthogonalEdgeStyle;rounded=0;orthogonalLoop=1;jettySize=auto;html=1;" edge="1" parent="1" source="Q30Wrn-e5RRqp390VMw--19" target="Q30Wrn-e5RRqp390VMw--30">
          <mxGeometry relative="1" as="geometry" />
        </mxCell>
        <mxCell id="Q30Wrn-e5RRqp390VMw--19" value="Adicionar conteúdos na release que enviará os mesmo para a branch main" style="rounded=1;whiteSpace=wrap;html=1;" vertex="1" parent="1">
          <mxGeometry x="640" y="270" width="140" height="80" as="geometry" />
        </mxCell>
        <mxCell id="Q30Wrn-e5RRqp390VMw--22" style="edgeStyle=orthogonalEdgeStyle;rounded=0;orthogonalLoop=1;jettySize=auto;html=1;entryX=-0.007;entryY=0.35;entryDx=0;entryDy=0;entryPerimeter=0;" edge="1" parent="1" source="Q30Wrn-e5RRqp390VMw--12" target="Q30Wrn-e5RRqp390VMw--18">
          <mxGeometry relative="1" as="geometry" />
        </mxCell>
        <mxCell id="Q30Wrn-e5RRqp390VMw--23" style="edgeStyle=orthogonalEdgeStyle;rounded=0;orthogonalLoop=1;jettySize=auto;html=1;entryX=0;entryY=0.588;entryDx=0;entryDy=0;entryPerimeter=0;" edge="1" parent="1" source="Q30Wrn-e5RRqp390VMw--1" target="Q30Wrn-e5RRqp390VMw--18">
          <mxGeometry relative="1" as="geometry" />
        </mxCell>
        <mxCell id="Q30Wrn-e5RRqp390VMw--29" style="edgeStyle=orthogonalEdgeStyle;rounded=0;orthogonalLoop=1;jettySize=auto;html=1;entryX=0;entryY=0.5;entryDx=0;entryDy=0;" edge="1" parent="1" source="Q30Wrn-e5RRqp390VMw--26" target="Q30Wrn-e5RRqp390VMw--19">
          <mxGeometry relative="1" as="geometry" />
        </mxCell>
        <mxCell id="Q30Wrn-e5RRqp390VMw--26" value="Criação de uma release" style="rounded=1;whiteSpace=wrap;html=1;arcSize=19;" vertex="1" parent="1">
          <mxGeometry x="435" y="270" width="150" height="80" as="geometry" />
        </mxCell>
        <mxCell id="Q30Wrn-e5RRqp390VMw--30" value="Deploy em Production" style="whiteSpace=wrap;html=1;rounded=1;" vertex="1" parent="1">
          <mxGeometry x="870" y="280" width="120" height="60" as="geometry" />
        </mxCell>
        <mxCell id="Q30Wrn-e5RRqp390VMw--34" value="" style="rounded=1;whiteSpace=wrap;html=1;" vertex="1" parent="1">
          <mxGeometry x="250" y="50" width="120" height="60" as="geometry" />
        </mxCell>
      </root>
    </mxGraphModel>
  </diagram>
</mxfile>
